<svg xmlns="http://www.w3.org/2000/svg" xmlns:xlink="http://www.w3.org/1999/xlink" width="500" zoomAndPan="magnify" viewBox="0 0 375 374.999991" height="500" preserveAspectRatio="xMidYMid meet" version="1.0"><defs><g/><clipPath id="b041f9a629"><path d="M 98.714844 134 L 160 134 L 160 175 L 98.714844 175 Z M 98.714844 134 " clip-rule="nonzero"/></clipPath><clipPath id="6862992d0b"><path d="M 109 122.636719 L 230 122.636719 L 230 164 L 109 164 Z M 109 122.636719 " clip-rule="nonzero"/></clipPath><clipPath id="9c4b039d6d"><path d="M 225 156 L 276.464844 156 L 276.464844 189.386719 L 225 189.386719 Z M 225 156 " clip-rule="nonzero"/></clipPath></defs><g clip-path="url(#b041f9a629)"><path fill="#253439" d="M 159.921875 158.308594 C 159.523438 157.976562 144.371094 147.90625 136.960938 141.851562 L 98.773438 174.308594 L 134.125 137.15625 L 136.960938 134.179688 L 141.769531 139.234375 L 159.921875 158.308594 " fill-opacity="1" fill-rule="nonzero"/></g><g clip-path="url(#6862992d0b)"><path fill="#ffffff" d="M 181.675781 152.53125 L 170.542969 163.1875 L 136.960938 127.894531 L 109.863281 156.371094 L 136.960938 122.640625 L 190.945312 129.847656 L 190.945312 136.441406 L 193.785156 139.429688 L 193.785156 124.324219 L 202.667969 124.324219 L 202.667969 130.085938 L 214.113281 131.527344 L 229.878906 146.621094 L 202.453125 150.449219 L 202.453125 145.941406 L 190.347656 145.941406 L 190.347656 151.050781 L 182.988281 151.890625 L 182.230469 152 L 181.675781 152.53125 " fill-opacity="1" fill-rule="nonzero"/></g><path fill="#253439" d="M 129.527344 161.046875 L 129.527344 162.722656 L 135.667969 162.722656 L 135.667969 154.90625 C 132.277344 154.90625 129.527344 157.65625 129.527344 161.046875 " fill-opacity="1" fill-rule="nonzero"/><path fill="#253439" d="M 138.085938 154.90625 L 138.085938 162.722656 L 144.226562 162.722656 L 144.226562 161.046875 C 144.226562 157.65625 141.476562 154.90625 138.085938 154.90625 " fill-opacity="1" fill-rule="nonzero"/><path fill="#253439" d="M 129.527344 171.277344 L 135.667969 171.277344 L 135.667969 165.136719 L 129.527344 165.136719 L 129.527344 171.277344 " fill-opacity="1" fill-rule="nonzero"/><path fill="#253439" d="M 138.085938 171.277344 L 144.226562 171.277344 L 144.226562 165.136719 L 138.085938 165.136719 L 138.085938 171.277344 " fill-opacity="1" fill-rule="nonzero"/><g clip-path="url(#9c4b039d6d)"><path fill="#ffffff" d="M 276.21875 189.453125 L 254.140625 170.691406 L 244.8125 162.757812 C 241.984375 165.066406 237.785156 168.089844 234.070312 170.691406 C 229.769531 173.699219 226.101562 176.144531 225.929688 176.292969 L 231.261719 170.691406 L 240.859375 160.601562 L 242.585938 158.785156 L 244.8125 156.445312 L 247.144531 158.894531 L 276.21875 189.453125 " fill-opacity="1" fill-rule="nonzero"/></g><path fill="#253439" d="M 267.097656 174.699219 L 244.8125 151.277344 L 240.015625 156.320312 L 226.34375 170.691406 L 211.320312 186.472656 L 149.691406 186.472656 L 172.199219 164.925781 L 183.335938 154.265625 L 192.75 153.121094 L 192.75 148.339844 L 200.054688 148.339844 L 200.054688 160.765625 L 202.390625 158.308594 L 202.390625 152.882812 L 232.089844 148.734375 L 244.8125 146.960938 L 267.097656 174.699219 " fill-opacity="1" fill-rule="nonzero"/><path fill="#ffffff" d="M 250.925781 178.542969 L 250.925781 179.921875 L 245.875 179.921875 L 245.875 173.496094 C 248.664062 173.496094 250.925781 175.753906 250.925781 178.542969 " fill-opacity="1" fill-rule="nonzero"/><path fill="#ffffff" d="M 243.886719 173.496094 L 243.886719 179.921875 L 238.835938 179.921875 L 238.835938 178.542969 C 238.835938 175.753906 241.097656 173.496094 243.886719 173.496094 " fill-opacity="1" fill-rule="nonzero"/><path fill="#ffffff" d="M 250.925781 186.957031 L 245.875 186.957031 L 245.875 181.90625 L 250.925781 181.90625 L 250.925781 186.957031 " fill-opacity="1" fill-rule="nonzero"/><path fill="#ffffff" d="M 243.886719 186.957031 L 238.835938 186.957031 L 238.835938 181.90625 L 243.886719 181.90625 L 243.886719 186.957031 " fill-opacity="1" fill-rule="nonzero"/><g fill="#ffffff" fill-opacity="1"><g transform="translate(93.220764, 211.780913)"><g><path d="M 1.625 0 C 1.65625 -0.195312 1.671875 -0.414062 1.671875 -0.65625 L 1.671875 -11.90625 L 3.46875 -11.90625 L 8.203125 -4.4375 L 8.203125 -11.296875 C 8.203125 -11.617188 8.171875 -11.820312 8.109375 -11.90625 L 10.53125 -11.90625 C 10.5 -11.664062 10.484375 -11.398438 10.484375 -11.109375 L 10.484375 0 L 8.625 0 L 3.953125 -7.171875 L 3.953125 0 Z M 1.625 0 "/></g></g></g><g fill="#ffffff" fill-opacity="1"><g transform="translate(107.949192, 211.780913)"><g><path d="M 7.53125 -2.140625 C 7.894531 -2.140625 8.148438 -2.175781 8.296875 -2.25 L 8.328125 -2.25 L 8.25 0 L 1.546875 0 L 1.546875 -11.96875 C 1.703125 -11.957031 1.878906 -11.945312 2.078125 -11.9375 L 2.703125 -11.921875 C 3.117188 -11.910156 3.570312 -11.90625 4.0625 -11.90625 C 5.425781 -11.90625 6.773438 -11.925781 8.109375 -11.96875 C 8.046875 -11.445312 8.015625 -10.75 8.015625 -9.875 C 8.015625 -9.78125 8.019531 -9.707031 8.03125 -9.65625 L 8.015625 -9.625 C 7.703125 -9.71875 7.257812 -9.765625 6.6875 -9.765625 L 3.875 -9.765625 L 3.875 -7.484375 L 6 -7.484375 C 6.65625 -7.484375 7.046875 -7.5 7.171875 -7.53125 L 7.203125 -5.328125 C 6.921875 -5.359375 6.550781 -5.375 6.09375 -5.375 L 3.875 -5.375 L 3.875 -2.140625 Z M 7.53125 -2.140625 "/></g></g></g><g fill="#ffffff" fill-opacity="1"><g transform="translate(119.69751, 211.780913)"><g><path d="M 6.96875 -11.03125 C 7.09375 -11.289062 7.15625 -11.484375 7.15625 -11.609375 C 7.15625 -11.742188 7.144531 -11.84375 7.125 -11.90625 L 10.34375 -11.90625 C 10.28125 -11.832031 10.195312 -11.742188 10.09375 -11.640625 C 9.988281 -11.546875 9.875 -11.429688 9.75 -11.296875 C 9.457031 -10.960938 9.1875 -10.570312 8.9375 -10.125 L 6.78125 -6.1875 L 8.78125 -2.40625 L 9.03125 -1.921875 C 9.476562 -0.972656 9.863281 -0.332031 10.1875 0 L 7.265625 0 C 7.242188 -0.207031 7.144531 -0.488281 6.96875 -0.84375 L 5.203125 -4.203125 C 3.972656 -1.703125 3.34375 -0.414062 3.3125 -0.34375 C 3.28125 -0.238281 3.253906 -0.125 3.234375 0 L 0.328125 0 C 0.546875 -0.226562 0.769531 -0.546875 1 -0.953125 L 2.078125 -2.859375 L 3.984375 -6.09375 L 1.484375 -10.8125 C 1.210938 -11.320312 0.972656 -11.6875 0.765625 -11.90625 L 3.78125 -11.90625 C 3.75 -11.84375 3.734375 -11.773438 3.734375 -11.703125 C 3.734375 -11.546875 3.8125 -11.320312 3.96875 -11.03125 L 5.453125 -8.046875 Z M 6.96875 -11.03125 "/></g></g></g><g fill="#ffffff" fill-opacity="1"><g transform="translate(132.940357, 211.780913)"><g><path d="M 5.828125 0.046875 C 5.546875 0.015625 4.8125 0 3.625 0 L 3.34375 0 L 3.34375 -9.890625 L 1.5625 -9.890625 C 1.039062 -9.890625 0.734375 -9.863281 0.640625 -9.8125 C 0.546875 -9.757812 0.46875 -9.710938 0.40625 -9.671875 L 0.390625 -9.6875 L 0.390625 -11.96875 L 0.40625 -12 C 0.601562 -11.9375 1.132812 -11.90625 2 -11.90625 L 7.609375 -11.90625 C 8.140625 -11.90625 8.453125 -11.929688 8.546875 -11.984375 C 8.640625 -12.035156 8.710938 -12.082031 8.765625 -12.125 L 8.796875 -12.125 L 8.796875 -9.828125 L 8.765625 -9.796875 C 8.566406 -9.859375 8.035156 -9.890625 7.171875 -9.890625 L 5.828125 -9.890625 Z M 5.828125 0.046875 "/></g></g></g><g fill="#ffffff" fill-opacity="1"><g transform="translate(144.688675, 211.780913)"><g/></g></g><g fill="#ffffff" fill-opacity="1"><g transform="translate(153.331596, 211.780913)"><g><path d="M 11.34375 -7.171875 C 11.226562 -6.972656 11.171875 -6.488281 11.171875 -5.71875 L 11.171875 -2.9375 C 11.171875 -2.101562 10.738281 -1.375 9.875 -0.75 C 8.96875 -0.101562 7.863281 0.21875 6.5625 0.21875 C 4.75 0.21875 3.300781 -0.347656 2.21875 -1.484375 C 1.175781 -2.566406 0.65625 -3.953125 0.65625 -5.640625 C 0.65625 -7.429688 1.1875 -8.921875 2.25 -10.109375 C 3.4375 -11.453125 5.070312 -12.125 7.15625 -12.125 C 8.539062 -12.125 9.640625 -11.859375 10.453125 -11.328125 L 10.3125 -8.6875 L 10.234375 -8.65625 C 10.023438 -9.019531 9.613281 -9.320312 9 -9.5625 C 8.414062 -9.78125 7.800781 -9.890625 7.15625 -9.890625 C 6.519531 -9.890625 5.960938 -9.785156 5.484375 -9.578125 C 5.003906 -9.378906 4.597656 -9.09375 4.265625 -8.71875 C 3.554688 -7.945312 3.203125 -6.929688 3.203125 -5.671875 C 3.203125 -4.566406 3.515625 -3.675781 4.140625 -3 C 4.753906 -2.34375 5.550781 -2.015625 6.53125 -2.015625 C 7.613281 -2.015625 8.34375 -2.296875 8.71875 -2.859375 C 8.832031 -3.035156 8.890625 -3.238281 8.890625 -3.46875 L 8.890625 -4.953125 L 7.734375 -4.953125 C 7.117188 -4.953125 6.785156 -4.894531 6.734375 -4.78125 L 6.703125 -4.796875 L 6.625 -7.125 C 6.789062 -7.082031 7.46875 -7.0625 8.65625 -7.0625 L 9.703125 -7.0625 C 10.359375 -7.0625 10.898438 -7.101562 11.328125 -7.1875 Z M 11.34375 -7.171875 "/></g></g></g><g fill="#ffffff" fill-opacity="1"><g transform="translate(168.104773, 211.780913)"><g><path d="M 7.53125 -2.140625 C 7.894531 -2.140625 8.148438 -2.175781 8.296875 -2.25 L 8.328125 -2.25 L 8.25 0 L 1.546875 0 L 1.546875 -11.96875 C 1.703125 -11.957031 1.878906 -11.945312 2.078125 -11.9375 L 2.703125 -11.921875 C 3.117188 -11.910156 3.570312 -11.90625 4.0625 -11.90625 C 5.425781 -11.90625 6.773438 -11.925781 8.109375 -11.96875 C 8.046875 -11.445312 8.015625 -10.75 8.015625 -9.875 C 8.015625 -9.78125 8.019531 -9.707031 8.03125 -9.65625 L 8.015625 -9.625 C 7.703125 -9.71875 7.257812 -9.765625 6.6875 -9.765625 L 3.875 -9.765625 L 3.875 -7.484375 L 6 -7.484375 C 6.65625 -7.484375 7.046875 -7.5 7.171875 -7.53125 L 7.203125 -5.328125 C 6.921875 -5.359375 6.550781 -5.375 6.09375 -5.375 L 3.875 -5.375 L 3.875 -2.140625 Z M 7.53125 -2.140625 "/></g></g></g><g fill="#ffffff" fill-opacity="1"><g transform="translate(179.853094, 211.780913)"><g><path d="M 1.625 0 C 1.65625 -0.195312 1.671875 -0.414062 1.671875 -0.65625 L 1.671875 -11.90625 L 3.46875 -11.90625 L 8.203125 -4.4375 L 8.203125 -11.296875 C 8.203125 -11.617188 8.171875 -11.820312 8.109375 -11.90625 L 10.53125 -11.90625 C 10.5 -11.664062 10.484375 -11.398438 10.484375 -11.109375 L 10.484375 0 L 8.625 0 L 3.953125 -7.171875 L 3.953125 0 Z M 1.625 0 "/></g></g></g><g fill="#ffffff" fill-opacity="1"><g transform="translate(194.581525, 211.780913)"><g><path d="M 7.53125 -2.140625 C 7.894531 -2.140625 8.148438 -2.175781 8.296875 -2.25 L 8.328125 -2.25 L 8.25 0 L 1.546875 0 L 1.546875 -11.96875 C 1.703125 -11.957031 1.878906 -11.945312 2.078125 -11.9375 L 2.703125 -11.921875 C 3.117188 -11.910156 3.570312 -11.90625 4.0625 -11.90625 C 5.425781 -11.90625 6.773438 -11.925781 8.109375 -11.96875 C 8.046875 -11.445312 8.015625 -10.75 8.015625 -9.875 C 8.015625 -9.78125 8.019531 -9.707031 8.03125 -9.65625 L 8.015625 -9.625 C 7.703125 -9.71875 7.257812 -9.765625 6.6875 -9.765625 L 3.875 -9.765625 L 3.875 -7.484375 L 6 -7.484375 C 6.65625 -7.484375 7.046875 -7.5 7.171875 -7.53125 L 7.203125 -5.328125 C 6.921875 -5.359375 6.550781 -5.375 6.09375 -5.375 L 3.875 -5.375 L 3.875 -2.140625 Z M 7.53125 -2.140625 "/></g></g></g><g fill="#ffffff" fill-opacity="1"><g transform="translate(206.329845, 211.780913)"><g><path d="M 5.390625 -4.625 C 5.210938 -4.613281 5.019531 -4.609375 4.8125 -4.609375 C 4.613281 -4.609375 4.3125 -4.625 3.90625 -4.65625 L 3.90625 0 L 1.546875 0 L 1.546875 -11.96875 C 2.378906 -12.070312 3.40625 -12.125 4.625 -12.125 C 6.28125 -12.125 7.515625 -11.816406 8.328125 -11.203125 C 9.140625 -10.597656 9.546875 -9.65625 9.546875 -8.375 C 9.546875 -7.382812 9.175781 -6.535156 8.4375 -5.828125 C 8.1875 -5.609375 7.90625 -5.414062 7.59375 -5.25 L 9.421875 -1.390625 C 9.773438 -0.597656 10.046875 -0.128906 10.234375 0.015625 L 10.1875 0.0625 C 9.613281 -0.03125 8.707031 -0.0234375 7.46875 0.078125 Z M 4.78125 -10.015625 C 4.476562 -10.015625 4.1875 -10 3.90625 -9.96875 L 3.90625 -6.546875 C 4.195312 -6.503906 4.539062 -6.484375 4.9375 -6.484375 C 5.332031 -6.484375 5.664062 -6.515625 5.9375 -6.578125 C 6.207031 -6.648438 6.4375 -6.757812 6.625 -6.90625 C 7.050781 -7.226562 7.265625 -7.703125 7.265625 -8.328125 C 7.265625 -8.960938 7.046875 -9.410156 6.609375 -9.671875 C 6.191406 -9.898438 5.582031 -10.015625 4.78125 -10.015625 Z M 4.78125 -10.015625 "/></g></g></g><g fill="#ffffff" fill-opacity="1"><g transform="translate(219.572696, 211.780913)"><g><path d="M 2.40625 0.078125 C 1.894531 0.0234375 1.296875 0 0.609375 0 L -0.09375 0 L 3.796875 -10.90625 C 3.960938 -11.394531 4.046875 -11.679688 4.046875 -11.765625 C 4.046875 -11.847656 4.046875 -11.894531 4.046875 -11.90625 L 4.046875 -11.921875 C 4.441406 -11.910156 4.851562 -11.90625 5.28125 -11.90625 C 5.644531 -11.90625 6.078125 -11.910156 6.578125 -11.921875 L 6.59375 -11.90625 C 6.570312 -11.875 6.5625 -11.835938 6.5625 -11.796875 C 6.5625 -11.691406 6.65625 -11.394531 6.84375 -10.90625 L 10.8125 0.03125 C 10.6875 0.0195312 10.546875 0.015625 10.390625 0.015625 C 10.390625 0.015625 10.234375 0.0078125 9.921875 0 C 9.773438 0 9.640625 0 9.515625 0 L 8.140625 0 L 7.296875 -2.578125 L 3.25 -2.578125 Z M 6.59375 -4.71875 L 5.25 -8.890625 L 3.921875 -4.71875 Z M 6.59375 -4.71875 "/></g></g></g><g fill="#ffffff" fill-opacity="1"><g transform="translate(232.851344, 211.780913)"><g><path d="M 5.828125 0.046875 C 5.546875 0.015625 4.8125 0 3.625 0 L 3.34375 0 L 3.34375 -9.890625 L 1.5625 -9.890625 C 1.039062 -9.890625 0.734375 -9.863281 0.640625 -9.8125 C 0.546875 -9.757812 0.46875 -9.710938 0.40625 -9.671875 L 0.390625 -9.6875 L 0.390625 -11.96875 L 0.40625 -12 C 0.601562 -11.9375 1.132812 -11.90625 2 -11.90625 L 7.609375 -11.90625 C 8.140625 -11.90625 8.453125 -11.929688 8.546875 -11.984375 C 8.640625 -12.035156 8.710938 -12.082031 8.765625 -12.125 L 8.796875 -12.125 L 8.796875 -9.828125 L 8.765625 -9.796875 C 8.566406 -9.859375 8.035156 -9.890625 7.171875 -9.890625 L 5.828125 -9.890625 Z M 5.828125 0.046875 "/></g></g></g><g fill="#ffffff" fill-opacity="1"><g transform="translate(244.599664, 211.780913)"><g><path d="M 1.8125 -11.9375 C 2.414062 -11.914062 2.78125 -11.90625 2.90625 -11.90625 L 3.546875 -11.90625 C 3.859375 -11.90625 4.109375 -11.925781 4.296875 -11.96875 L 4.296875 0 L 1.8125 0 Z M 1.8125 -11.9375 "/></g></g></g><g fill="#ffffff" fill-opacity="1"><g transform="translate(253.287332, 211.780913)"><g><path d="M 2.515625 -1.40625 C 1.972656 -1.925781 1.546875 -2.550781 1.234375 -3.28125 C 0.921875 -4.007812 0.765625 -4.804688 0.765625 -5.671875 C 0.765625 -6.546875 0.910156 -7.367188 1.203125 -8.140625 C 1.492188 -8.921875 1.910156 -9.601562 2.453125 -10.1875 C 2.992188 -10.78125 3.648438 -11.25 4.421875 -11.59375 C 5.191406 -11.945312 6.050781 -12.125 7 -12.125 C 8.65625 -12.125 10.046875 -11.601562 11.171875 -10.5625 C 12.367188 -9.457031 12.96875 -7.960938 12.96875 -6.078125 C 12.96875 -4.253906 12.347656 -2.734375 11.109375 -1.515625 C 10.347656 -0.773438 9.441406 -0.265625 8.390625 0.015625 C 7.867188 0.148438 7.257812 0.21875 6.5625 0.21875 C 5.863281 0.21875 5.148438 0.078125 4.421875 -0.203125 C 3.691406 -0.492188 3.054688 -0.894531 2.515625 -1.40625 Z M 3.25 -5.796875 C 3.25 -5.242188 3.335938 -4.734375 3.515625 -4.265625 C 3.703125 -3.804688 3.960938 -3.40625 4.296875 -3.0625 C 4.992188 -2.363281 5.890625 -2.015625 6.984375 -2.015625 C 8.035156 -2.015625 8.875 -2.351562 9.5 -3.03125 C 10.144531 -3.726562 10.46875 -4.675781 10.46875 -5.875 C 10.46875 -7.007812 10.160156 -7.957031 9.546875 -8.71875 C 8.890625 -9.53125 7.984375 -9.9375 6.828125 -9.9375 C 5.710938 -9.9375 4.828125 -9.523438 4.171875 -8.703125 C 3.554688 -7.929688 3.25 -6.960938 3.25 -5.796875 Z M 3.25 -5.796875 "/></g></g></g><g fill="#ffffff" fill-opacity="1"><g transform="translate(269.590836, 211.780913)"><g><path d="M 1.625 0 C 1.65625 -0.195312 1.671875 -0.414062 1.671875 -0.65625 L 1.671875 -11.90625 L 3.46875 -11.90625 L 8.203125 -4.4375 L 8.203125 -11.296875 C 8.203125 -11.617188 8.171875 -11.820312 8.109375 -11.90625 L 10.53125 -11.90625 C 10.5 -11.664062 10.484375 -11.398438 10.484375 -11.109375 L 10.484375 0 L 8.625 0 L 3.953125 -7.171875 L 3.953125 0 Z M 1.625 0 "/></g></g></g><g fill="#ffffff" fill-opacity="1"><g transform="translate(140.261077, 230.264706)"><g><path d="M 1.078125 -9.359375 C 1.722656 -9.441406 2.382812 -9.484375 3.0625 -9.484375 C 4.332031 -9.484375 5.296875 -9.1875 5.953125 -8.59375 C 6.617188 -8 6.953125 -7.109375 6.953125 -5.921875 C 6.953125 -4.859375 6.585938 -4.019531 5.859375 -3.40625 C 5.179688 -2.832031 4.3125 -2.546875 3.25 -2.546875 C 3.132812 -2.546875 3.003906 -2.550781 2.859375 -2.5625 L 2.859375 0 L 1.078125 0 Z M 3.28125 -7.796875 C 3.132812 -7.796875 2.992188 -7.789062 2.859375 -7.78125 L 2.859375 -4.09375 C 3.003906 -4.082031 3.179688 -4.078125 3.390625 -4.078125 C 3.609375 -4.078125 3.832031 -4.117188 4.0625 -4.203125 C 4.300781 -4.296875 4.5 -4.425781 4.65625 -4.59375 C 4.988281 -4.925781 5.15625 -5.375 5.15625 -5.9375 C 5.15625 -7.175781 4.53125 -7.796875 3.28125 -7.796875 Z M 3.28125 -7.796875 "/></g></g></g><g fill="#ffffff" fill-opacity="1"><g transform="translate(149.441589, 230.264706)"><g><path d="M 4.21875 -3.609375 C 4.070312 -3.609375 3.921875 -3.609375 3.765625 -3.609375 C 3.609375 -3.609375 3.375 -3.617188 3.0625 -3.640625 L 3.0625 0 L 1.203125 0 L 1.203125 -9.359375 C 1.859375 -9.441406 2.660156 -9.484375 3.609375 -9.484375 C 4.910156 -9.484375 5.878906 -9.242188 6.515625 -8.765625 C 7.148438 -8.285156 7.46875 -7.546875 7.46875 -6.546875 C 7.46875 -5.773438 7.175781 -5.113281 6.59375 -4.5625 C 6.394531 -4.382812 6.175781 -4.226562 5.9375 -4.09375 L 7.359375 -1.09375 C 7.640625 -0.46875 7.851562 -0.0976562 8 0.015625 L 7.96875 0.046875 C 7.519531 -0.0234375 6.804688 -0.0195312 5.828125 0.0625 Z M 3.75 -7.828125 C 3.507812 -7.828125 3.28125 -7.816406 3.0625 -7.796875 L 3.0625 -5.125 C 3.289062 -5.09375 3.554688 -5.078125 3.859375 -5.078125 C 4.171875 -5.078125 4.429688 -5.101562 4.640625 -5.15625 C 4.847656 -5.207031 5.03125 -5.289062 5.1875 -5.40625 C 5.519531 -5.644531 5.6875 -6.007812 5.6875 -6.5 C 5.6875 -7 5.507812 -7.351562 5.15625 -7.5625 C 4.84375 -7.738281 4.375 -7.828125 3.75 -7.828125 Z M 3.75 -7.828125 "/></g></g></g><g fill="#ffffff" fill-opacity="1"><g transform="translate(159.789821, 230.264706)"><g><path d="M 1.96875 -1.109375 C 1.539062 -1.515625 1.203125 -2 0.953125 -2.5625 C 0.710938 -3.132812 0.59375 -3.757812 0.59375 -4.4375 C 0.59375 -5.113281 0.707031 -5.753906 0.9375 -6.359375 C 1.164062 -6.972656 1.488281 -7.507812 1.90625 -7.96875 C 2.332031 -8.425781 2.847656 -8.789062 3.453125 -9.0625 C 4.054688 -9.34375 4.734375 -9.484375 5.484375 -9.484375 C 6.765625 -9.484375 7.847656 -9.078125 8.734375 -8.265625 C 9.671875 -7.398438 10.140625 -6.226562 10.140625 -4.75 C 10.140625 -3.320312 9.65625 -2.132812 8.6875 -1.1875 C 8.09375 -0.601562 7.382812 -0.203125 6.5625 0.015625 C 6.15625 0.117188 5.675781 0.171875 5.125 0.171875 C 4.582031 0.171875 4.023438 0.0625 3.453125 -0.15625 C 2.890625 -0.382812 2.394531 -0.703125 1.96875 -1.109375 Z M 2.546875 -4.53125 C 2.546875 -4.101562 2.613281 -3.707031 2.75 -3.34375 C 2.894531 -2.976562 3.097656 -2.664062 3.359375 -2.40625 C 3.898438 -1.851562 4.601562 -1.578125 5.46875 -1.578125 C 6.28125 -1.578125 6.9375 -1.835938 7.4375 -2.359375 C 7.9375 -2.910156 8.1875 -3.65625 8.1875 -4.59375 C 8.1875 -5.476562 7.945312 -6.21875 7.46875 -6.8125 C 6.945312 -7.445312 6.238281 -7.765625 5.34375 -7.765625 C 4.46875 -7.765625 3.773438 -7.441406 3.265625 -6.796875 C 2.785156 -6.191406 2.546875 -5.4375 2.546875 -4.53125 Z M 2.546875 -4.53125 "/></g></g></g><g fill="#ffffff" fill-opacity="1"><g transform="translate(172.529432, 230.264706)"><g><path d="M 1.078125 -9.359375 C 1.722656 -9.441406 2.382812 -9.484375 3.0625 -9.484375 C 4.332031 -9.484375 5.296875 -9.1875 5.953125 -8.59375 C 6.617188 -8 6.953125 -7.109375 6.953125 -5.921875 C 6.953125 -4.859375 6.585938 -4.019531 5.859375 -3.40625 C 5.179688 -2.832031 4.3125 -2.546875 3.25 -2.546875 C 3.132812 -2.546875 3.003906 -2.550781 2.859375 -2.5625 L 2.859375 0 L 1.078125 0 Z M 3.28125 -7.796875 C 3.132812 -7.796875 2.992188 -7.789062 2.859375 -7.78125 L 2.859375 -4.09375 C 3.003906 -4.082031 3.179688 -4.078125 3.390625 -4.078125 C 3.609375 -4.078125 3.832031 -4.117188 4.0625 -4.203125 C 4.300781 -4.296875 4.5 -4.425781 4.65625 -4.59375 C 4.988281 -4.925781 5.15625 -5.375 5.15625 -5.9375 C 5.15625 -7.175781 4.53125 -7.796875 3.28125 -7.796875 Z M 3.28125 -7.796875 "/></g></g></g><g fill="#ffffff" fill-opacity="1"><g transform="translate(181.709944, 230.264706)"><g><path d="M 5.890625 -1.671875 C 6.171875 -1.671875 6.367188 -1.703125 6.484375 -1.765625 L 6.515625 -1.75 L 6.4375 0 L 1.203125 0 L 1.203125 -9.359375 C 1.328125 -9.347656 1.46875 -9.335938 1.625 -9.328125 L 2.109375 -9.3125 C 2.441406 -9.3125 2.796875 -9.3125 3.171875 -9.3125 C 4.242188 -9.3125 5.300781 -9.328125 6.34375 -9.359375 C 6.289062 -8.953125 6.265625 -8.40625 6.265625 -7.71875 C 6.265625 -7.644531 6.269531 -7.585938 6.28125 -7.546875 L 6.265625 -7.53125 C 6.023438 -7.59375 5.679688 -7.625 5.234375 -7.625 L 3.03125 -7.625 L 3.03125 -5.84375 L 4.6875 -5.84375 C 5.195312 -5.84375 5.503906 -5.859375 5.609375 -5.890625 L 5.625 -4.15625 C 5.40625 -4.1875 5.117188 -4.203125 4.765625 -4.203125 L 3.03125 -4.203125 L 3.03125 -1.671875 Z M 5.890625 -1.671875 "/></g></g></g><g fill="#ffffff" fill-opacity="1"><g transform="translate(190.890457, 230.264706)"><g><path d="M 4.21875 -3.609375 C 4.070312 -3.609375 3.921875 -3.609375 3.765625 -3.609375 C 3.609375 -3.609375 3.375 -3.617188 3.0625 -3.640625 L 3.0625 0 L 1.203125 0 L 1.203125 -9.359375 C 1.859375 -9.441406 2.660156 -9.484375 3.609375 -9.484375 C 4.910156 -9.484375 5.878906 -9.242188 6.515625 -8.765625 C 7.148438 -8.285156 7.46875 -7.546875 7.46875 -6.546875 C 7.46875 -5.773438 7.175781 -5.113281 6.59375 -4.5625 C 6.394531 -4.382812 6.175781 -4.226562 5.9375 -4.09375 L 7.359375 -1.09375 C 7.640625 -0.46875 7.851562 -0.0976562 8 0.015625 L 7.96875 0.046875 C 7.519531 -0.0234375 6.804688 -0.0195312 5.828125 0.0625 Z M 3.75 -7.828125 C 3.507812 -7.828125 3.28125 -7.816406 3.0625 -7.796875 L 3.0625 -5.125 C 3.289062 -5.09375 3.554688 -5.078125 3.859375 -5.078125 C 4.171875 -5.078125 4.429688 -5.101562 4.640625 -5.15625 C 4.847656 -5.207031 5.03125 -5.289062 5.1875 -5.40625 C 5.519531 -5.644531 5.6875 -6.007812 5.6875 -6.5 C 5.6875 -7 5.507812 -7.351562 5.15625 -7.5625 C 4.84375 -7.738281 4.375 -7.828125 3.75 -7.828125 Z M 3.75 -7.828125 "/></g></g></g><g fill="#ffffff" fill-opacity="1"><g transform="translate(201.238691, 230.264706)"><g><path d="M 4.5625 0.046875 C 4.332031 0.015625 3.753906 0 2.828125 0 L 2.609375 0 L 2.609375 -7.734375 L 1.21875 -7.734375 C 0.8125 -7.734375 0.570312 -7.710938 0.5 -7.671875 C 0.425781 -7.628906 0.367188 -7.59375 0.328125 -7.5625 L 0.296875 -7.5625 L 0.296875 -9.359375 L 0.328125 -9.375 C 0.472656 -9.332031 0.882812 -9.3125 1.5625 -9.3125 L 5.953125 -9.3125 C 6.359375 -9.3125 6.597656 -9.332031 6.671875 -9.375 C 6.753906 -9.414062 6.816406 -9.453125 6.859375 -9.484375 L 6.875 -9.46875 L 6.875 -7.6875 L 6.859375 -7.65625 C 6.703125 -7.707031 6.285156 -7.734375 5.609375 -7.734375 L 4.5625 -7.734375 Z M 4.5625 0.046875 "/></g></g></g><g fill="#ffffff" fill-opacity="1"><g transform="translate(210.419203, 230.264706)"><g><path d="M 1.421875 -9.328125 C 1.890625 -9.316406 2.171875 -9.3125 2.265625 -9.3125 L 2.765625 -9.3125 C 3.015625 -9.3125 3.210938 -9.328125 3.359375 -9.359375 L 3.359375 0 L 1.421875 0 Z M 1.421875 -9.328125 "/></g></g></g><g fill="#ffffff" fill-opacity="1"><g transform="translate(217.208336, 230.264706)"><g><path d="M 5.890625 -1.671875 C 6.171875 -1.671875 6.367188 -1.703125 6.484375 -1.765625 L 6.515625 -1.75 L 6.4375 0 L 1.203125 0 L 1.203125 -9.359375 C 1.328125 -9.347656 1.46875 -9.335938 1.625 -9.328125 L 2.109375 -9.3125 C 2.441406 -9.3125 2.796875 -9.3125 3.171875 -9.3125 C 4.242188 -9.3125 5.300781 -9.328125 6.34375 -9.359375 C 6.289062 -8.953125 6.265625 -8.40625 6.265625 -7.71875 C 6.265625 -7.644531 6.269531 -7.585938 6.28125 -7.546875 L 6.265625 -7.53125 C 6.023438 -7.59375 5.679688 -7.625 5.234375 -7.625 L 3.03125 -7.625 L 3.03125 -5.84375 L 4.6875 -5.84375 C 5.195312 -5.84375 5.503906 -5.859375 5.609375 -5.890625 L 5.625 -4.15625 C 5.40625 -4.1875 5.117188 -4.203125 4.765625 -4.203125 L 3.03125 -4.203125 L 3.03125 -1.671875 Z M 5.890625 -1.671875 "/></g></g></g><g fill="#ffffff" fill-opacity="1"><g transform="translate(226.388849, 230.264706)"><g><path d="M 6.828125 -8.78125 L 6.6875 -6.734375 L 6.640625 -6.71875 C 6.296875 -7.238281 5.707031 -7.570312 4.875 -7.71875 C 4.613281 -7.769531 4.363281 -7.796875 4.125 -7.796875 C 3.882812 -7.796875 3.675781 -7.773438 3.5 -7.734375 C 3.332031 -7.691406 3.191406 -7.632812 3.078125 -7.5625 C 2.816406 -7.382812 2.6875 -7.160156 2.6875 -6.890625 C 2.6875 -6.535156 2.796875 -6.269531 3.015625 -6.09375 C 3.296875 -5.882812 3.757812 -5.734375 4.40625 -5.640625 C 5.0625 -5.554688 5.582031 -5.441406 5.96875 -5.296875 C 6.363281 -5.148438 6.6875 -4.960938 6.9375 -4.734375 C 7.414062 -4.296875 7.65625 -3.6875 7.65625 -2.90625 C 7.65625 -1.882812 7.269531 -1.09375 6.5 -0.53125 C 5.832031 -0.0625 4.992188 0.171875 3.984375 0.171875 C 3.171875 0.171875 2.367188 0.0195312 1.578125 -0.28125 C 1.316406 -0.382812 1.085938 -0.503906 0.890625 -0.640625 L 0.96875 -2.984375 L 1 -3 C 1.582031 -2 2.53125 -1.5 3.84375 -1.5 C 4.78125 -1.5 5.398438 -1.726562 5.703125 -2.1875 C 5.804688 -2.332031 5.859375 -2.5 5.859375 -2.6875 C 5.859375 -2.882812 5.828125 -3.039062 5.765625 -3.15625 C 5.710938 -3.28125 5.613281 -3.390625 5.46875 -3.484375 C 5.195312 -3.660156 4.738281 -3.78125 4.09375 -3.84375 C 3.457031 -3.90625 2.9375 -4.019531 2.53125 -4.1875 C 2.132812 -4.351562 1.8125 -4.5625 1.5625 -4.8125 C 1.125 -5.257812 0.90625 -5.882812 0.90625 -6.6875 C 0.90625 -7.507812 1.195312 -8.179688 1.78125 -8.703125 C 2.375 -9.222656 3.171875 -9.484375 4.171875 -9.484375 C 5.179688 -9.484375 6.066406 -9.25 6.828125 -8.78125 Z M 6.828125 -8.78125 "/></g></g></g></svg>