<svg xmlns="http://www.w3.org/2000/svg" xmlns:xlink="http://www.w3.org/1999/xlink" width="500" zoomAndPan="magnify" viewBox="0 0 375 374.999991" height="500" preserveAspectRatio="xMidYMid meet" version="1.0"><defs><clipPath id="542406d90e"><path d="M 98.714844 165 L 160 165 L 160 206 L 98.714844 206 Z M 98.714844 165 " clip-rule="nonzero"/></clipPath><clipPath id="615737468c"><path d="M 109 154.09375 L 230 154.09375 L 230 195 L 109 195 Z M 109 154.09375 " clip-rule="nonzero"/></clipPath><clipPath id="8fbd154140"><path d="M 225 187 L 276.464844 187 L 276.464844 220.84375 L 225 220.84375 Z M 225 187 " clip-rule="nonzero"/></clipPath></defs><g clip-path="url(#542406d90e)"><path fill="#253439" d="M 159.921875 189.769531 C 159.523438 189.433594 144.371094 179.363281 136.960938 173.308594 L 98.773438 205.765625 L 134.125 168.613281 L 136.960938 165.636719 L 141.769531 170.691406 L 159.921875 189.769531 " fill-opacity="1" fill-rule="nonzero"/></g><g clip-path="url(#615737468c)"><path fill="#ffffff" d="M 181.675781 183.988281 L 170.542969 194.644531 L 136.960938 159.351562 L 109.863281 187.828125 L 136.960938 154.101562 L 190.945312 161.304688 L 190.945312 167.898438 L 193.785156 170.886719 L 193.785156 155.78125 L 202.667969 155.78125 L 202.667969 161.542969 L 214.113281 162.984375 L 229.878906 178.078125 L 202.453125 181.90625 L 202.453125 177.398438 L 190.347656 177.398438 L 190.347656 182.507812 L 182.988281 183.347656 L 182.230469 183.457031 L 181.675781 183.988281 " fill-opacity="1" fill-rule="nonzero"/></g><path fill="#253439" d="M 129.527344 192.507812 L 129.527344 194.179688 L 135.667969 194.179688 L 135.667969 186.363281 C 132.277344 186.363281 129.527344 189.113281 129.527344 192.507812 " fill-opacity="1" fill-rule="nonzero"/><path fill="#253439" d="M 138.085938 186.363281 L 138.085938 194.179688 L 144.226562 194.179688 L 144.226562 192.507812 C 144.226562 189.113281 141.476562 186.363281 138.085938 186.363281 " fill-opacity="1" fill-rule="nonzero"/><path fill="#253439" d="M 129.527344 202.734375 L 135.667969 202.734375 L 135.667969 196.59375 L 129.527344 196.59375 L 129.527344 202.734375 " fill-opacity="1" fill-rule="nonzero"/><path fill="#253439" d="M 138.085938 202.734375 L 144.226562 202.734375 L 144.226562 196.59375 L 138.085938 196.59375 L 138.085938 202.734375 " fill-opacity="1" fill-rule="nonzero"/><g clip-path="url(#8fbd154140)"><path fill="#ffffff" d="M 276.21875 220.910156 L 254.140625 202.148438 L 244.8125 194.214844 C 241.984375 196.523438 237.785156 199.546875 234.070312 202.148438 C 229.769531 205.15625 226.101562 207.605469 225.929688 207.75 L 231.261719 202.148438 L 240.859375 192.058594 L 242.585938 190.242188 L 244.8125 187.902344 L 247.144531 190.351562 L 276.21875 220.910156 " fill-opacity="1" fill-rule="nonzero"/></g><path fill="#253439" d="M 267.097656 206.15625 L 244.8125 182.734375 L 240.015625 187.777344 L 226.34375 202.148438 L 211.320312 217.933594 L 149.691406 217.933594 L 172.199219 196.382812 L 183.335938 185.722656 L 192.75 184.578125 L 192.75 179.800781 L 200.054688 179.800781 L 200.054688 192.222656 L 202.390625 189.765625 L 202.390625 184.339844 L 232.089844 180.195312 L 244.8125 178.417969 L 267.097656 206.15625 " fill-opacity="1" fill-rule="nonzero"/><path fill="#ffffff" d="M 250.925781 210.003906 L 250.925781 211.378906 L 245.875 211.378906 L 245.875 204.953125 C 248.664062 204.953125 250.925781 207.214844 250.925781 210.003906 " fill-opacity="1" fill-rule="nonzero"/><path fill="#ffffff" d="M 243.886719 204.953125 L 243.886719 211.378906 L 238.835938 211.378906 L 238.835938 210.003906 C 238.835938 207.214844 241.097656 204.953125 243.886719 204.953125 " fill-opacity="1" fill-rule="nonzero"/><path fill="#ffffff" d="M 250.925781 218.414062 L 245.875 218.414062 L 245.875 213.363281 L 250.925781 213.363281 L 250.925781 218.414062 " fill-opacity="1" fill-rule="nonzero"/><path fill="#ffffff" d="M 243.886719 218.414062 L 238.835938 218.414062 L 238.835938 213.363281 L 243.886719 213.363281 L 243.886719 218.414062 " fill-opacity="1" fill-rule="nonzero"/></svg>