<svg xmlns="http://www.w3.org/2000/svg" xmlns:xlink="http://www.w3.org/1999/xlink" width="500" zoomAndPan="magnify" viewBox="0 0 375 374.999991" height="500" preserveAspectRatio="xMidYMid meet" version="1.0"><defs><g/></defs><g fill="#ffffff" fill-opacity="1"><g transform="translate(93.882897, 192.749987)"><g><path d="M 17.328125 -14.40625 L 15.890625 -14.171875 L 15.890625 0 L 11.75 0 L 6.03125 -9.640625 L 4.890625 -12.484375 L 4.90625 -1.984375 L 7.046875 -1.46875 L 7.046875 0 L 0.8125 0 L 0.8125 -1.46875 L 2.46875 -1.9375 L 2.46875 -14.140625 L 0.90625 -14.390625 L 0.90625 -16.328125 L 6.25 -16.328125 L 12.578125 -5.3125 L 13.5 -2.828125 L 13.5 -14.109375 L 11.609375 -14.40625 L 11.609375 -16.328125 L 17.328125 -16.328125 Z M 17.328125 -14.40625 "/></g></g></g><g fill="#ffffff" fill-opacity="1"><g transform="translate(111.805396, 192.749987)"><g><path d="M 7.21875 -12.09375 C 8.8125 -12.09375 10.023438 -11.691406 10.859375 -10.890625 C 11.703125 -10.097656 12.125 -8.941406 12.125 -7.421875 C 12.125 -6.796875 12.070312 -6.179688 11.96875 -5.578125 L 4.65625 -5.578125 C 4.75 -4.328125 5.066406 -3.382812 5.609375 -2.75 C 6.160156 -2.125 6.953125 -1.8125 7.984375 -1.8125 C 9.128906 -1.8125 10.242188 -2.046875 11.328125 -2.515625 L 11.890625 -1.203125 C 11.328125 -0.734375 10.570312 -0.363281 9.625 -0.09375 C 8.6875 0.164062 7.789062 0.296875 6.9375 0.296875 C 4.96875 0.296875 3.445312 -0.210938 2.375 -1.234375 C 1.3125 -2.265625 0.78125 -3.710938 0.78125 -5.578125 C 0.78125 -6.835938 1.050781 -7.960938 1.59375 -8.953125 C 2.132812 -9.941406 2.894531 -10.710938 3.875 -11.265625 C 4.851562 -11.816406 5.96875 -12.09375 7.21875 -12.09375 Z M 6.890625 -10.640625 C 5.585938 -10.640625 4.84375 -9.507812 4.65625 -7.25 L 8.5 -7.25 C 8.5625 -7.769531 8.59375 -8.207031 8.59375 -8.5625 C 8.59375 -9.945312 8.023438 -10.640625 6.890625 -10.640625 Z M 6.890625 -10.640625 "/></g></g></g><g fill="#ffffff" fill-opacity="1"><g transform="translate(124.822341, 192.749987)"><g><path d="M 1.71875 -1.78125 L 4.96875 -5.625 L 1.4375 -9.625 L 0.09375 -9.890625 L 0.09375 -11.75 L 6.703125 -11.75 L 6.703125 -9.890625 L 5.703125 -9.625 L 6.09375 -9.046875 L 7.390625 -7.34375 L 7.640625 -7.765625 L 9.125 -9.6875 L 7.796875 -9.890625 L 7.796875 -11.75 L 13.625 -11.75 L 13.625 -9.890625 L 11.6875 -9.5625 L 8.609375 -6.21875 L 12.296875 -1.765625 L 13.65625 -1.421875 L 13.65625 0 L 7.140625 0 L 7.140625 -1.421875 L 8.03125 -1.75 L 7.40625 -2.578125 L 6.140625 -4.234375 L 5.984375 -3.875 L 4.59375 -1.8125 L 6.109375 -1.421875 L 6.109375 0 L 0 0 L 0 -1.421875 Z M 1.71875 -1.78125 "/></g></g></g><g fill="#ffffff" fill-opacity="1"><g transform="translate(138.463239, 192.749987)"><g><path d="M 5.359375 -11.75 L 8.953125 -11.75 L 8.953125 -9.890625 L 5.515625 -9.890625 L 5.515625 -5.828125 C 5.515625 -4.878906 5.535156 -4.144531 5.578125 -3.625 C 5.617188 -3.113281 5.734375 -2.691406 5.921875 -2.359375 C 6.109375 -2.035156 6.398438 -1.875 6.796875 -1.875 C 7.054688 -1.875 7.382812 -1.910156 7.78125 -1.984375 C 8.175781 -2.066406 8.460938 -2.148438 8.640625 -2.234375 L 9.1875 -1.0625 C 8.757812 -0.625 8.144531 -0.289062 7.34375 -0.0625 C 6.550781 0.15625 5.75 0.265625 4.9375 0.265625 C 4.144531 0.265625 3.53125 0.128906 3.09375 -0.140625 C 2.65625 -0.421875 2.34375 -0.835938 2.15625 -1.390625 C 1.976562 -1.953125 1.890625 -2.695312 1.890625 -3.625 L 1.890625 -9.890625 L 0.296875 -9.890625 L 0.296875 -11.0625 C 1.210938 -11.207031 1.890625 -11.492188 2.328125 -11.921875 C 2.585938 -12.179688 2.804688 -12.507812 2.984375 -12.90625 C 3.160156 -13.3125 3.363281 -13.867188 3.59375 -14.578125 L 5.359375 -14.578125 Z M 5.359375 -11.75 "/></g></g></g><g fill="#ffffff" fill-opacity="1"><g transform="translate(148.166776, 192.749987)"><g/></g></g><g fill="#ffffff" fill-opacity="1"><g transform="translate(152.986271, 192.749987)"><g><path d="M 9.390625 -16.46875 C 10.273438 -16.46875 11.242188 -16.414062 12.296875 -16.3125 C 13.359375 -16.207031 14.175781 -16.066406 14.75 -15.890625 L 14.515625 -12.296875 L 12.625 -12.296875 L 11.65625 -14.1875 C 11.519531 -14.332031 11.234375 -14.472656 10.796875 -14.609375 C 10.367188 -14.742188 9.828125 -14.8125 9.171875 -14.8125 C 8.210938 -14.8125 7.398438 -14.53125 6.734375 -13.96875 C 6.066406 -13.414062 5.566406 -12.675781 5.234375 -11.75 C 4.898438 -10.820312 4.734375 -9.804688 4.734375 -8.703125 C 4.734375 -6.609375 5.0625 -4.863281 5.71875 -3.46875 C 6.382812 -2.070312 7.4375 -1.375 8.875 -1.375 C 9.476562 -1.375 10.066406 -1.503906 10.640625 -1.765625 C 11.210938 -2.023438 11.523438 -2.34375 11.578125 -2.71875 L 11.578125 -5.40625 L 9.359375 -5.703125 L 9.359375 -7.453125 L 15.875 -7.453125 L 15.875 -5.703125 L 14.875 -5.453125 L 14.875 -0.5625 C 14.644531 -0.59375 14.472656 -0.609375 14.359375 -0.609375 C 14.015625 -0.609375 13.640625 -0.570312 13.234375 -0.5 C 12.835938 -0.425781 12.320312 -0.320312 11.6875 -0.1875 C 10.894531 -0.03125 10.238281 0.0859375 9.71875 0.171875 C 9.195312 0.253906 8.691406 0.296875 8.203125 0.296875 C 6.722656 0.296875 5.410156 -0.0546875 4.265625 -0.765625 C 3.128906 -1.472656 2.25 -2.441406 1.625 -3.671875 C 1 -4.910156 0.6875 -6.304688 0.6875 -7.859375 C 0.6875 -9.609375 1.046875 -11.132812 1.765625 -12.4375 C 2.492188 -13.738281 3.515625 -14.734375 4.828125 -15.421875 C 6.140625 -16.117188 7.660156 -16.46875 9.390625 -16.46875 Z M 9.390625 -16.46875 "/></g></g></g><g fill="#ffffff" fill-opacity="1"><g transform="translate(169.639347, 192.749987)"><g><path d="M 7.21875 -12.09375 C 8.8125 -12.09375 10.023438 -11.691406 10.859375 -10.890625 C 11.703125 -10.097656 12.125 -8.941406 12.125 -7.421875 C 12.125 -6.796875 12.070312 -6.179688 11.96875 -5.578125 L 4.65625 -5.578125 C 4.75 -4.328125 5.066406 -3.382812 5.609375 -2.75 C 6.160156 -2.125 6.953125 -1.8125 7.984375 -1.8125 C 9.128906 -1.8125 10.242188 -2.046875 11.328125 -2.515625 L 11.890625 -1.203125 C 11.328125 -0.734375 10.570312 -0.363281 9.625 -0.09375 C 8.6875 0.164062 7.789062 0.296875 6.9375 0.296875 C 4.96875 0.296875 3.445312 -0.210938 2.375 -1.234375 C 1.3125 -2.265625 0.78125 -3.710938 0.78125 -5.578125 C 0.78125 -6.835938 1.050781 -7.960938 1.59375 -8.953125 C 2.132812 -9.941406 2.894531 -10.710938 3.875 -11.265625 C 4.851562 -11.816406 5.96875 -12.09375 7.21875 -12.09375 Z M 6.890625 -10.640625 C 5.585938 -10.640625 4.84375 -9.507812 4.65625 -7.25 L 8.5 -7.25 C 8.5625 -7.769531 8.59375 -8.207031 8.59375 -8.5625 C 8.59375 -9.945312 8.023438 -10.640625 6.890625 -10.640625 Z M 6.890625 -10.640625 "/></g></g></g><g fill="#ffffff" fill-opacity="1"><g transform="translate(182.656291, 192.749987)"><g><path d="M 2.328125 -1.703125 L 2.328125 -8.609375 L 0.90625 -9.625 L 0.90625 -10.9375 L 4.796875 -12.09375 L 5.59375 -11.90625 L 5.59375 -10.328125 C 6.144531 -10.878906 6.820312 -11.3125 7.625 -11.625 C 8.4375 -11.9375 9.222656 -12.09375 9.984375 -12.09375 C 11.265625 -12.09375 12.160156 -11.695312 12.671875 -10.90625 C 13.191406 -10.125 13.453125 -8.941406 13.453125 -7.359375 L 13.453125 -1.703125 L 14.921875 -1.421875 L 14.921875 0 L 8.21875 0 L 8.21875 -1.421875 L 9.734375 -1.71875 L 9.734375 -6.890625 C 9.734375 -7.660156 9.679688 -8.234375 9.578125 -8.609375 C 9.484375 -8.992188 9.285156 -9.265625 8.984375 -9.421875 C 8.691406 -9.585938 8.242188 -9.671875 7.640625 -9.671875 C 7.453125 -9.671875 7.171875 -9.613281 6.796875 -9.5 C 6.429688 -9.394531 6.179688 -9.289062 6.046875 -9.1875 L 6.046875 -1.71875 L 7.34375 -1.421875 L 7.34375 0 L 1.015625 0 L 1.015625 -1.421875 Z M 2.328125 -1.703125 "/></g></g></g><g fill="#ffffff" fill-opacity="1"><g transform="translate(198.061468, 192.749987)"><g><path d="M 7.21875 -12.09375 C 8.8125 -12.09375 10.023438 -11.691406 10.859375 -10.890625 C 11.703125 -10.097656 12.125 -8.941406 12.125 -7.421875 C 12.125 -6.796875 12.070312 -6.179688 11.96875 -5.578125 L 4.65625 -5.578125 C 4.75 -4.328125 5.066406 -3.382812 5.609375 -2.75 C 6.160156 -2.125 6.953125 -1.8125 7.984375 -1.8125 C 9.128906 -1.8125 10.242188 -2.046875 11.328125 -2.515625 L 11.890625 -1.203125 C 11.328125 -0.734375 10.570312 -0.363281 9.625 -0.09375 C 8.6875 0.164062 7.789062 0.296875 6.9375 0.296875 C 4.96875 0.296875 3.445312 -0.210938 2.375 -1.234375 C 1.3125 -2.265625 0.78125 -3.710938 0.78125 -5.578125 C 0.78125 -6.835938 1.050781 -7.960938 1.59375 -8.953125 C 2.132812 -9.941406 2.894531 -10.710938 3.875 -11.265625 C 4.851562 -11.816406 5.96875 -12.09375 7.21875 -12.09375 Z M 6.890625 -10.640625 C 5.585938 -10.640625 4.84375 -9.507812 4.65625 -7.25 L 8.5 -7.25 C 8.5625 -7.769531 8.59375 -8.207031 8.59375 -8.5625 C 8.59375 -9.945312 8.023438 -10.640625 6.890625 -10.640625 Z M 6.890625 -10.640625 "/></g></g></g><g fill="#ffffff" fill-opacity="1"><g transform="translate(211.078412, 192.749987)"><g><path d="M 2.328125 -1.703125 L 2.328125 -8.609375 L 0.90625 -9.625 L 0.90625 -10.9375 L 4.796875 -12.09375 L 5.5625 -11.90625 L 5.5625 -9.859375 C 5.65625 -10.242188 5.867188 -10.609375 6.203125 -10.953125 C 6.546875 -11.296875 6.929688 -11.570312 7.359375 -11.78125 C 7.796875 -11.988281 8.195312 -12.09375 8.5625 -12.09375 C 9.15625 -12.09375 9.535156 -12.050781 9.703125 -11.96875 L 9.703125 -8.65625 C 9.546875 -8.8125 9.273438 -8.929688 8.890625 -9.015625 C 8.515625 -9.109375 8.191406 -9.15625 7.921875 -9.15625 C 7.523438 -9.15625 7.148438 -9.113281 6.796875 -9.03125 C 6.441406 -8.945312 6.191406 -8.859375 6.046875 -8.765625 L 6.046875 -1.78125 L 8.5 -1.421875 L 8.5 0 L 1.03125 0 L 1.03125 -1.421875 Z M 2.328125 -1.703125 "/></g></g></g><g fill="#ffffff" fill-opacity="1"><g transform="translate(221.233784, 192.749987)"><g><path d="M 6.625 -12.09375 C 8.269531 -12.09375 9.484375 -11.753906 10.265625 -11.078125 C 11.054688 -10.398438 11.453125 -9.296875 11.453125 -7.765625 L 11.453125 -1.421875 L 12.828125 -1.421875 L 12.828125 -0.296875 C 12.546875 -0.0976562 12.148438 0.046875 11.640625 0.140625 C 11.128906 0.242188 10.625 0.296875 10.125 0.296875 C 9.59375 0.296875 9.15625 0.191406 8.8125 -0.015625 C 8.46875 -0.222656 8.269531 -0.519531 8.21875 -0.90625 C 7.375 -0.101562 6.359375 0.296875 5.171875 0.296875 C 3.847656 0.296875 2.773438 0 1.953125 -0.59375 C 1.140625 -1.1875 0.734375 -2.015625 0.734375 -3.078125 C 0.734375 -4.023438 1.0625 -4.820312 1.71875 -5.46875 C 2.382812 -6.113281 3.25 -6.59375 4.3125 -6.90625 C 5.382812 -7.226562 6.523438 -7.390625 7.734375 -7.390625 L 7.734375 -7.515625 C 7.710938 -8.460938 7.539062 -9.128906 7.21875 -9.515625 C 6.894531 -9.898438 6.316406 -10.09375 5.484375 -10.09375 C 4.890625 -10.09375 4.253906 -10.003906 3.578125 -9.828125 C 2.910156 -9.660156 2.394531 -9.445312 2.03125 -9.1875 L 1.3125 -10.8125 C 1.832031 -11.226562 2.601562 -11.546875 3.625 -11.765625 C 4.65625 -11.984375 5.65625 -12.09375 6.625 -12.09375 Z M 7.734375 -5.765625 C 6.796875 -5.765625 6.019531 -5.578125 5.40625 -5.203125 C 4.800781 -4.835938 4.5 -4.28125 4.5 -3.53125 C 4.5 -2.9375 4.644531 -2.484375 4.9375 -2.171875 C 5.238281 -1.867188 5.675781 -1.71875 6.25 -1.71875 C 6.875 -1.71875 7.367188 -1.867188 7.734375 -2.171875 Z M 7.734375 -5.765625 "/></g></g></g><g fill="#ffffff" fill-opacity="1"><g transform="translate(234.121627, 192.749987)"><g><path d="M 5.359375 -11.75 L 8.953125 -11.75 L 8.953125 -9.890625 L 5.515625 -9.890625 L 5.515625 -5.828125 C 5.515625 -4.878906 5.535156 -4.144531 5.578125 -3.625 C 5.617188 -3.113281 5.734375 -2.691406 5.921875 -2.359375 C 6.109375 -2.035156 6.398438 -1.875 6.796875 -1.875 C 7.054688 -1.875 7.382812 -1.910156 7.78125 -1.984375 C 8.175781 -2.066406 8.460938 -2.148438 8.640625 -2.234375 L 9.1875 -1.0625 C 8.757812 -0.625 8.144531 -0.289062 7.34375 -0.0625 C 6.550781 0.15625 5.75 0.265625 4.9375 0.265625 C 4.144531 0.265625 3.53125 0.128906 3.09375 -0.140625 C 2.65625 -0.421875 2.34375 -0.835938 2.15625 -1.390625 C 1.976562 -1.953125 1.890625 -2.695312 1.890625 -3.625 L 1.890625 -9.890625 L 0.296875 -9.890625 L 0.296875 -11.0625 C 1.210938 -11.207031 1.890625 -11.492188 2.328125 -11.921875 C 2.585938 -12.179688 2.804688 -12.507812 2.984375 -12.90625 C 3.160156 -13.3125 3.363281 -13.867188 3.59375 -14.578125 L 5.359375 -14.578125 Z M 5.359375 -11.75 "/></g></g></g><g fill="#ffffff" fill-opacity="1"><g transform="translate(243.825164, 192.749987)"><g><path d="M 4.171875 -18.265625 C 4.859375 -18.265625 5.390625 -18.085938 5.765625 -17.734375 C 6.140625 -17.378906 6.328125 -16.894531 6.328125 -16.28125 C 6.328125 -15.59375 6.070312 -15.03125 5.5625 -14.59375 C 5.050781 -14.15625 4.453125 -13.9375 3.765625 -13.9375 C 3.160156 -13.9375 2.648438 -14.117188 2.234375 -14.484375 C 1.816406 -14.859375 1.609375 -15.332031 1.609375 -15.90625 C 1.609375 -16.34375 1.734375 -16.738281 1.984375 -17.09375 C 2.242188 -17.457031 2.566406 -17.742188 2.953125 -17.953125 C 3.347656 -18.160156 3.753906 -18.265625 4.171875 -18.265625 Z M 5.96875 -11.84375 L 5.96875 -1.703125 L 7.46875 -1.421875 L 7.46875 0 L 0.84375 0 L 0.84375 -1.421875 L 2.234375 -1.71875 L 2.234375 -8.265625 L 0.90625 -9.78125 L 0.90625 -10.765625 L 5.0625 -12.09375 Z M 5.96875 -11.84375 "/></g></g></g><g fill="#ffffff" fill-opacity="1"><g transform="translate(251.678362, 192.749987)"><g><path d="M 7.234375 -12.125 C 9.203125 -12.125 10.703125 -11.613281 11.734375 -10.59375 C 12.765625 -9.570312 13.28125 -8.113281 13.28125 -6.21875 C 13.28125 -4.914062 13.015625 -3.773438 12.484375 -2.796875 C 11.953125 -1.816406 11.207031 -1.0625 10.25 -0.53125 C 9.300781 0 8.195312 0.265625 6.9375 0.265625 C 4.957031 0.265625 3.429688 -0.273438 2.359375 -1.359375 C 1.285156 -2.453125 0.765625 -3.96875 0.796875 -5.90625 C 0.835938 -7.820312 1.429688 -9.320312 2.578125 -10.40625 C 3.734375 -11.488281 5.285156 -12.0625 7.234375 -12.125 Z M 7.140625 -10.578125 C 6.285156 -10.578125 5.675781 -10.175781 5.3125 -9.375 C 4.945312 -8.582031 4.765625 -7.523438 4.765625 -6.203125 C 4.765625 -4.878906 4.941406 -3.726562 5.296875 -2.75 C 5.648438 -1.78125 6.238281 -1.296875 7.0625 -1.296875 C 7.9375 -1.296875 8.535156 -1.734375 8.859375 -2.609375 C 9.179688 -3.484375 9.34375 -4.625 9.34375 -6.03125 C 9.34375 -7.351562 9.175781 -8.441406 8.84375 -9.296875 C 8.519531 -10.148438 7.953125 -10.578125 7.140625 -10.578125 Z M 7.140625 -10.578125 "/></g></g></g><g fill="#ffffff" fill-opacity="1"><g transform="translate(265.706541, 192.749987)"><g><path d="M 2.328125 -1.703125 L 2.328125 -8.609375 L 0.90625 -9.625 L 0.90625 -10.9375 L 4.796875 -12.09375 L 5.59375 -11.90625 L 5.59375 -10.328125 C 6.144531 -10.878906 6.820312 -11.3125 7.625 -11.625 C 8.4375 -11.9375 9.222656 -12.09375 9.984375 -12.09375 C 11.265625 -12.09375 12.160156 -11.695312 12.671875 -10.90625 C 13.191406 -10.125 13.453125 -8.941406 13.453125 -7.359375 L 13.453125 -1.703125 L 14.921875 -1.421875 L 14.921875 0 L 8.21875 0 L 8.21875 -1.421875 L 9.734375 -1.71875 L 9.734375 -6.890625 C 9.734375 -7.660156 9.679688 -8.234375 9.578125 -8.609375 C 9.484375 -8.992188 9.285156 -9.265625 8.984375 -9.421875 C 8.691406 -9.585938 8.242188 -9.671875 7.640625 -9.671875 C 7.453125 -9.671875 7.171875 -9.613281 6.796875 -9.5 C 6.429688 -9.394531 6.179688 -9.289062 6.046875 -9.1875 L 6.046875 -1.71875 L 7.34375 -1.421875 L 7.34375 0 L 1.015625 0 L 1.015625 -1.421875 Z M 2.328125 -1.703125 "/></g></g></g><g fill="#ffffff" fill-opacity="1"><g transform="translate(140.261077, 212.41358)"><g><path d="M 1.078125 -9.359375 C 1.722656 -9.441406 2.382812 -9.484375 3.0625 -9.484375 C 4.332031 -9.484375 5.296875 -9.1875 5.953125 -8.59375 C 6.617188 -8 6.953125 -7.109375 6.953125 -5.921875 C 6.953125 -4.859375 6.585938 -4.019531 5.859375 -3.40625 C 5.179688 -2.832031 4.3125 -2.546875 3.25 -2.546875 C 3.132812 -2.546875 3.003906 -2.550781 2.859375 -2.5625 L 2.859375 0 L 1.078125 0 Z M 3.28125 -7.796875 C 3.132812 -7.796875 2.992188 -7.789062 2.859375 -7.78125 L 2.859375 -4.09375 C 3.003906 -4.082031 3.179688 -4.078125 3.390625 -4.078125 C 3.609375 -4.078125 3.832031 -4.117188 4.0625 -4.203125 C 4.300781 -4.296875 4.5 -4.425781 4.65625 -4.59375 C 4.988281 -4.925781 5.15625 -5.375 5.15625 -5.9375 C 5.15625 -7.175781 4.53125 -7.796875 3.28125 -7.796875 Z M 3.28125 -7.796875 "/></g></g></g><g fill="#ffffff" fill-opacity="1"><g transform="translate(149.441589, 212.41358)"><g><path d="M 4.21875 -3.609375 C 4.070312 -3.609375 3.921875 -3.609375 3.765625 -3.609375 C 3.609375 -3.609375 3.375 -3.617188 3.0625 -3.640625 L 3.0625 0 L 1.203125 0 L 1.203125 -9.359375 C 1.859375 -9.441406 2.660156 -9.484375 3.609375 -9.484375 C 4.910156 -9.484375 5.878906 -9.242188 6.515625 -8.765625 C 7.148438 -8.285156 7.46875 -7.546875 7.46875 -6.546875 C 7.46875 -5.773438 7.175781 -5.113281 6.59375 -4.5625 C 6.394531 -4.382812 6.175781 -4.226562 5.9375 -4.09375 L 7.359375 -1.09375 C 7.640625 -0.46875 7.851562 -0.0976562 8 0.015625 L 7.96875 0.046875 C 7.519531 -0.0234375 6.804688 -0.0195312 5.828125 0.0625 Z M 3.75 -7.828125 C 3.507812 -7.828125 3.28125 -7.816406 3.0625 -7.796875 L 3.0625 -5.125 C 3.289062 -5.09375 3.554688 -5.078125 3.859375 -5.078125 C 4.171875 -5.078125 4.429688 -5.101562 4.640625 -5.15625 C 4.847656 -5.207031 5.03125 -5.289062 5.1875 -5.40625 C 5.519531 -5.644531 5.6875 -6.007812 5.6875 -6.5 C 5.6875 -7 5.507812 -7.351562 5.15625 -7.5625 C 4.84375 -7.738281 4.375 -7.828125 3.75 -7.828125 Z M 3.75 -7.828125 "/></g></g></g><g fill="#ffffff" fill-opacity="1"><g transform="translate(159.789821, 212.41358)"><g><path d="M 1.96875 -1.109375 C 1.539062 -1.515625 1.203125 -2 0.953125 -2.5625 C 0.710938 -3.132812 0.59375 -3.757812 0.59375 -4.4375 C 0.59375 -5.113281 0.707031 -5.753906 0.9375 -6.359375 C 1.164062 -6.972656 1.488281 -7.507812 1.90625 -7.96875 C 2.332031 -8.425781 2.847656 -8.789062 3.453125 -9.0625 C 4.054688 -9.34375 4.734375 -9.484375 5.484375 -9.484375 C 6.765625 -9.484375 7.847656 -9.078125 8.734375 -8.265625 C 9.671875 -7.398438 10.140625 -6.226562 10.140625 -4.75 C 10.140625 -3.320312 9.65625 -2.132812 8.6875 -1.1875 C 8.09375 -0.601562 7.382812 -0.203125 6.5625 0.015625 C 6.15625 0.117188 5.675781 0.171875 5.125 0.171875 C 4.582031 0.171875 4.023438 0.0625 3.453125 -0.15625 C 2.890625 -0.382812 2.394531 -0.703125 1.96875 -1.109375 Z M 2.546875 -4.53125 C 2.546875 -4.101562 2.613281 -3.707031 2.75 -3.34375 C 2.894531 -2.976562 3.097656 -2.664062 3.359375 -2.40625 C 3.898438 -1.851562 4.601562 -1.578125 5.46875 -1.578125 C 6.28125 -1.578125 6.9375 -1.835938 7.4375 -2.359375 C 7.9375 -2.910156 8.1875 -3.65625 8.1875 -4.59375 C 8.1875 -5.476562 7.945312 -6.21875 7.46875 -6.8125 C 6.945312 -7.445312 6.238281 -7.765625 5.34375 -7.765625 C 4.46875 -7.765625 3.773438 -7.441406 3.265625 -6.796875 C 2.785156 -6.191406 2.546875 -5.4375 2.546875 -4.53125 Z M 2.546875 -4.53125 "/></g></g></g><g fill="#ffffff" fill-opacity="1"><g transform="translate(172.529432, 212.41358)"><g><path d="M 1.078125 -9.359375 C 1.722656 -9.441406 2.382812 -9.484375 3.0625 -9.484375 C 4.332031 -9.484375 5.296875 -9.1875 5.953125 -8.59375 C 6.617188 -8 6.953125 -7.109375 6.953125 -5.921875 C 6.953125 -4.859375 6.585938 -4.019531 5.859375 -3.40625 C 5.179688 -2.832031 4.3125 -2.546875 3.25 -2.546875 C 3.132812 -2.546875 3.003906 -2.550781 2.859375 -2.5625 L 2.859375 0 L 1.078125 0 Z M 3.28125 -7.796875 C 3.132812 -7.796875 2.992188 -7.789062 2.859375 -7.78125 L 2.859375 -4.09375 C 3.003906 -4.082031 3.179688 -4.078125 3.390625 -4.078125 C 3.609375 -4.078125 3.832031 -4.117188 4.0625 -4.203125 C 4.300781 -4.296875 4.5 -4.425781 4.65625 -4.59375 C 4.988281 -4.925781 5.15625 -5.375 5.15625 -5.9375 C 5.15625 -7.175781 4.53125 -7.796875 3.28125 -7.796875 Z M 3.28125 -7.796875 "/></g></g></g><g fill="#ffffff" fill-opacity="1"><g transform="translate(181.709944, 212.41358)"><g><path d="M 5.890625 -1.671875 C 6.171875 -1.671875 6.367188 -1.703125 6.484375 -1.765625 L 6.515625 -1.75 L 6.4375 0 L 1.203125 0 L 1.203125 -9.359375 C 1.328125 -9.347656 1.46875 -9.335938 1.625 -9.328125 L 2.109375 -9.3125 C 2.441406 -9.3125 2.796875 -9.3125 3.171875 -9.3125 C 4.242188 -9.3125 5.300781 -9.328125 6.34375 -9.359375 C 6.289062 -8.953125 6.265625 -8.40625 6.265625 -7.71875 C 6.265625 -7.644531 6.269531 -7.585938 6.28125 -7.546875 L 6.265625 -7.53125 C 6.023438 -7.59375 5.679688 -7.625 5.234375 -7.625 L 3.03125 -7.625 L 3.03125 -5.84375 L 4.6875 -5.84375 C 5.195312 -5.84375 5.503906 -5.859375 5.609375 -5.890625 L 5.625 -4.15625 C 5.40625 -4.1875 5.117188 -4.203125 4.765625 -4.203125 L 3.03125 -4.203125 L 3.03125 -1.671875 Z M 5.890625 -1.671875 "/></g></g></g><g fill="#ffffff" fill-opacity="1"><g transform="translate(190.890457, 212.41358)"><g><path d="M 4.21875 -3.609375 C 4.070312 -3.609375 3.921875 -3.609375 3.765625 -3.609375 C 3.609375 -3.609375 3.375 -3.617188 3.0625 -3.640625 L 3.0625 0 L 1.203125 0 L 1.203125 -9.359375 C 1.859375 -9.441406 2.660156 -9.484375 3.609375 -9.484375 C 4.910156 -9.484375 5.878906 -9.242188 6.515625 -8.765625 C 7.148438 -8.285156 7.46875 -7.546875 7.46875 -6.546875 C 7.46875 -5.773438 7.175781 -5.113281 6.59375 -4.5625 C 6.394531 -4.382812 6.175781 -4.226562 5.9375 -4.09375 L 7.359375 -1.09375 C 7.640625 -0.46875 7.851562 -0.0976562 8 0.015625 L 7.96875 0.046875 C 7.519531 -0.0234375 6.804688 -0.0195312 5.828125 0.0625 Z M 3.75 -7.828125 C 3.507812 -7.828125 3.28125 -7.816406 3.0625 -7.796875 L 3.0625 -5.125 C 3.289062 -5.09375 3.554688 -5.078125 3.859375 -5.078125 C 4.171875 -5.078125 4.429688 -5.101562 4.640625 -5.15625 C 4.847656 -5.207031 5.03125 -5.289062 5.1875 -5.40625 C 5.519531 -5.644531 5.6875 -6.007812 5.6875 -6.5 C 5.6875 -7 5.507812 -7.351562 5.15625 -7.5625 C 4.84375 -7.738281 4.375 -7.828125 3.75 -7.828125 Z M 3.75 -7.828125 "/></g></g></g><g fill="#ffffff" fill-opacity="1"><g transform="translate(201.238691, 212.41358)"><g><path d="M 4.5625 0.046875 C 4.332031 0.015625 3.753906 0 2.828125 0 L 2.609375 0 L 2.609375 -7.734375 L 1.21875 -7.734375 C 0.8125 -7.734375 0.570312 -7.710938 0.5 -7.671875 C 0.425781 -7.628906 0.367188 -7.59375 0.328125 -7.5625 L 0.296875 -7.5625 L 0.296875 -9.359375 L 0.328125 -9.375 C 0.472656 -9.332031 0.882812 -9.3125 1.5625 -9.3125 L 5.953125 -9.3125 C 6.359375 -9.3125 6.597656 -9.332031 6.671875 -9.375 C 6.753906 -9.414062 6.816406 -9.453125 6.859375 -9.484375 L 6.875 -9.46875 L 6.875 -7.6875 L 6.859375 -7.65625 C 6.703125 -7.707031 6.285156 -7.734375 5.609375 -7.734375 L 4.5625 -7.734375 Z M 4.5625 0.046875 "/></g></g></g><g fill="#ffffff" fill-opacity="1"><g transform="translate(210.419203, 212.41358)"><g><path d="M 1.421875 -9.328125 C 1.890625 -9.316406 2.171875 -9.3125 2.265625 -9.3125 L 2.765625 -9.3125 C 3.015625 -9.3125 3.210938 -9.328125 3.359375 -9.359375 L 3.359375 0 L 1.421875 0 Z M 1.421875 -9.328125 "/></g></g></g><g fill="#ffffff" fill-opacity="1"><g transform="translate(217.208336, 212.41358)"><g><path d="M 5.890625 -1.671875 C 6.171875 -1.671875 6.367188 -1.703125 6.484375 -1.765625 L 6.515625 -1.75 L 6.4375 0 L 1.203125 0 L 1.203125 -9.359375 C 1.328125 -9.347656 1.46875 -9.335938 1.625 -9.328125 L 2.109375 -9.3125 C 2.441406 -9.3125 2.796875 -9.3125 3.171875 -9.3125 C 4.242188 -9.3125 5.300781 -9.328125 6.34375 -9.359375 C 6.289062 -8.953125 6.265625 -8.40625 6.265625 -7.71875 C 6.265625 -7.644531 6.269531 -7.585938 6.28125 -7.546875 L 6.265625 -7.53125 C 6.023438 -7.59375 5.679688 -7.625 5.234375 -7.625 L 3.03125 -7.625 L 3.03125 -5.84375 L 4.6875 -5.84375 C 5.195312 -5.84375 5.503906 -5.859375 5.609375 -5.890625 L 5.625 -4.15625 C 5.40625 -4.1875 5.117188 -4.203125 4.765625 -4.203125 L 3.03125 -4.203125 L 3.03125 -1.671875 Z M 5.890625 -1.671875 "/></g></g></g><g fill="#ffffff" fill-opacity="1"><g transform="translate(226.388849, 212.41358)"><g><path d="M 6.828125 -8.78125 L 6.6875 -6.734375 L 6.640625 -6.71875 C 6.296875 -7.238281 5.707031 -7.570312 4.875 -7.71875 C 4.613281 -7.769531 4.363281 -7.796875 4.125 -7.796875 C 3.882812 -7.796875 3.675781 -7.773438 3.5 -7.734375 C 3.332031 -7.691406 3.191406 -7.632812 3.078125 -7.5625 C 2.816406 -7.382812 2.6875 -7.160156 2.6875 -6.890625 C 2.6875 -6.535156 2.796875 -6.269531 3.015625 -6.09375 C 3.296875 -5.882812 3.757812 -5.734375 4.40625 -5.640625 C 5.0625 -5.554688 5.582031 -5.441406 5.96875 -5.296875 C 6.363281 -5.148438 6.6875 -4.960938 6.9375 -4.734375 C 7.414062 -4.296875 7.65625 -3.6875 7.65625 -2.90625 C 7.65625 -1.882812 7.269531 -1.09375 6.5 -0.53125 C 5.832031 -0.0625 4.992188 0.171875 3.984375 0.171875 C 3.171875 0.171875 2.367188 0.0195312 1.578125 -0.28125 C 1.316406 -0.382812 1.085938 -0.503906 0.890625 -0.640625 L 0.96875 -2.984375 L 1 -3 C 1.582031 -2 2.53125 -1.5 3.84375 -1.5 C 4.78125 -1.5 5.398438 -1.726562 5.703125 -2.1875 C 5.804688 -2.332031 5.859375 -2.5 5.859375 -2.6875 C 5.859375 -2.882812 5.828125 -3.039062 5.765625 -3.15625 C 5.710938 -3.28125 5.613281 -3.390625 5.46875 -3.484375 C 5.195312 -3.660156 4.738281 -3.78125 4.09375 -3.84375 C 3.457031 -3.90625 2.9375 -4.019531 2.53125 -4.1875 C 2.132812 -4.351562 1.8125 -4.5625 1.5625 -4.8125 C 1.125 -5.257812 0.90625 -5.882812 0.90625 -6.6875 C 0.90625 -7.507812 1.195312 -8.179688 1.78125 -8.703125 C 2.375 -9.222656 3.171875 -9.484375 4.171875 -9.484375 C 5.179688 -9.484375 6.066406 -9.25 6.828125 -8.78125 Z M 6.828125 -8.78125 "/></g></g></g></svg>